<?xml version="1.0" encoding="UTF-8"?>
<svg id="Layer_2" data-name="Layer 2" xmlns="http://www.w3.org/2000/svg" xmlns:xlink="http://www.w3.org/1999/xlink" viewBox="0 0 248.24 63.46">
  <defs>
    <style>
      .cls-1 {
        fill: url(#linear-gradient);
      }

      .cls-2 {
        fill: #241f20;
      }

      .cls-3 {
        fill: #38abe2;
      }

      .cls-4 {
        fill: url(#linear-gradient-2);
      }
    </style>
    <linearGradient id="linear-gradient" x1="0" y1="26.79" x2="53.1" y2="26.79" gradientUnits="userSpaceOnUse">
      <stop offset="0" stop-color="#c9da2b"/>
      <stop offset=".23" stop-color="#c6d92d"/>
      <stop offset=".38" stop-color="#bdd634"/>
      <stop offset=".5" stop-color="#afd241"/>
      <stop offset=".61" stop-color="#9acb53"/>
      <stop offset=".71" stop-color="#7fc36b"/>
      <stop offset=".81" stop-color="#5eb988"/>
      <stop offset=".9" stop-color="#36adaa"/>
      <stop offset=".98" stop-color="#0aa0d1"/>
      <stop offset="1" stop-color="#009ddb"/>
    </linearGradient>
    <linearGradient id="linear-gradient-2" x1="22.48" y1="54.4" y2="54.4" xlink:href="#linear-gradient"/>
  </defs>
  <g id="Layer_1-2" data-name="Layer 1">
    <g>
      <g>
        <path class="cls-1" d="M26.36,9.11h13.13c3.84,0,7.42,1.15,10.42,3.12,1.92-1.15,3.2-3.24,3.2-5.64,0-3.64-2.95-6.58-6.58-6.58H25.39C11.39,0,0,13.12,0,29.24v1.95c0,8.98,3.53,17.02,9.08,22.39V26.39c0-9.53,7.75-17.28,17.28-17.28Z"/>
        <path class="cls-4" d="M31.96,51.67c-1.86,0-3.64,.88-4.76,2.36l-4.72,6.19c.96,.13,1.93,.2,2.92,.2h21.13c3.64,0,6.58-2.95,6.58-6.58,0-2.28-1.16-4.29-2.92-5.47-3.05,2.08-6.73,3.3-10.7,3.3h-7.53Z"/>
      </g>
      <path class="cls-3" d="M39.49,48.57h-7.53c-2.84,0-5.51,1.33-7.23,3.58l-7.81,10.26c-1.53,2.01-4.73,.93-4.73-1.59V26.39c0-7.83,6.35-14.18,14.18-14.18h13.13c8.8,0,15.94,7.14,15.94,15.94v4.48c0,8.8-7.14,15.94-15.94,15.94Z"/>
    </g>
    <g>
      <g>
        <path class="cls-2" d="M65.63,45.32l1.95,6.94,1.63-6.94h1.29l1.67,6.94,1.91-6.94h1.4l-2.59,8.79h-1.44l-1.57-6.83-1.68,6.83h-1.43l-2.55-8.79h1.4Z"/>
        <path class="cls-2" d="M76.04,50.86c0-1.96,1.26-3.34,3.33-3.34,2.2,0,3.44,1.53,3.33,3.68h-5.35c.09,1.17,.94,1.95,2.18,1.96,.73,0,1.39-.28,1.81-.73l.94,.67c-.64,.73-1.63,1.13-2.76,1.13-2.12,0-3.47-1.42-3.47-3.39Zm1.3-.34l4.22-.03c-.11-1.15-.9-1.89-2.13-1.89s-1.99,.74-2.09,1.91Z"/>
        <path class="cls-2" d="M90.76,54.09h-1.27v-1.59c-.42,1.02-1.27,1.75-2.54,1.75-1.87,0-3.16-1.42-3.16-3.39s1.29-3.34,3.16-3.34c1.26,0,2.11,.71,2.54,1.72v-1.59h1.27v6.45Zm-1.29-3.22c0-1.33-.93-2.19-2.19-2.19s-2.19,.87-2.19,2.19,.92,2.22,2.19,2.22,2.19-.88,2.19-2.22Z"/>
        <path class="cls-2" d="M92.44,54.11v-9.21h1.27v9.21h-1.27Z"/>
        <path class="cls-2" d="M94.91,48.71v-1.06h1.02v-1.45l1.27-.32v1.77h1.35v1.06h-1.35v3.11c0,1.06,.33,1.36,1.5,1.29v.99c-1.89,.14-2.78-.23-2.78-2.12v-3.27h-1.02Z"/>
        <path class="cls-2" d="M105.8,50.27v3.83h-1.27v-3.73c0-1.13-.55-1.76-1.59-1.76s-1.75,.87-1.75,2v3.49h-1.27v-8.79h1.27v3.92c.34-.99,1.1-1.72,2.19-1.72,1.72,0,2.42,1.13,2.42,2.75Z"/>
        <path class="cls-2" d="M111.49,45.32l1.95,6.94,1.63-6.94h1.29l1.67,6.94,1.91-6.94h1.4l-2.59,8.79h-1.44l-1.57-6.83-1.68,6.83h-1.43l-2.55-8.79h1.4Z"/>
        <path class="cls-2" d="M122.46,45.72c0-.42,.29-.74,.82-.74,.47,0,.82,.32,.82,.74,0,.34-.34,.71-.82,.71-.52,0-.82-.37-.82-.71Zm1.44,8.38h-1.27v-6.47c.2,.05,.42,.09,.64,.09s.43-.04,.64-.09v6.47Z"/>
        <path class="cls-2" d="M125.32,48.71v-1.06h1.02v-1.45l1.27-.32v1.77h1.35v1.06h-1.35v3.11c0,1.06,.33,1.36,1.5,1.29v.99c-1.89,.14-2.78-.23-2.78-2.12v-3.27h-1.02Z"/>
        <path class="cls-2" d="M136.21,50.27v3.83h-1.27v-3.73c0-1.13-.55-1.76-1.59-1.76s-1.75,.87-1.75,2v3.49h-1.27v-8.79h1.27v3.92c.34-.99,1.1-1.72,2.19-1.72,1.72,0,2.42,1.13,2.42,2.75Z"/>
        <path class="cls-2" d="M137.6,50.86c0-1.96,1.36-3.34,3.43-3.34s3.44,1.38,3.44,3.34-1.36,3.39-3.44,3.39-3.43-1.42-3.43-3.39Zm5.63,.01c0-1.33-.92-2.19-2.2-2.19s-2.19,.87-2.19,2.19,.92,2.22,2.19,2.22,2.2-.88,2.2-2.22Z"/>
        <path class="cls-2" d="M145.85,51.48v-3.83h1.27v3.73c0,1.13,.55,1.76,1.62,1.76s1.76-.87,1.76-2v-3.49h1.27v6.46h-1.27v-1.49c-.38,.93-1.13,1.62-2.2,1.62-1.73,0-2.45-1.13-2.45-2.75Z"/>
        <path class="cls-2" d="M152.99,48.71v-1.06h1.02v-1.45l1.27-.32v1.77h1.35v1.06h-1.35v3.11c0,1.06,.33,1.36,1.5,1.29v.99c-1.89,.14-2.78-.23-2.78-2.12v-3.27h-1.02Z"/>
        <path class="cls-2" d="M162.01,45.32l1.95,6.94,1.63-6.94h1.29l1.67,6.94,1.91-6.94h1.4l-2.59,8.79h-1.44l-1.57-6.83-1.68,6.83h-1.43l-2.55-8.79h1.4Z"/>
        <path class="cls-2" d="M179.37,54.09h-1.27v-1.59c-.42,1.02-1.27,1.75-2.54,1.75-1.87,0-3.16-1.42-3.16-3.39s1.29-3.34,3.16-3.34c1.26,0,2.11,.71,2.54,1.72v-1.59h1.27v6.45Zm-1.29-3.22c0-1.33-.93-2.19-2.19-2.19s-2.19,.87-2.19,2.19,.92,2.22,2.19,2.22,2.19-.88,2.19-2.22Z"/>
        <path class="cls-2" d="M181.05,54.11v-9.21h1.27v9.21h-1.27Z"/>
        <path class="cls-2" d="M184,54.11v-9.21h1.27v9.21h-1.27Z"/>
        <path class="cls-2" d="M187.44,52.29c.25,.64,.98,.98,1.72,1.01,.84,.01,1.39-.28,1.39-.88s-.7-.79-1.49-1.04c-1.02-.32-2.2-.68-2.2-2,0-1.17,1.02-1.85,2.36-1.85,1.06,0,2,.45,2.4,1.17l-.76,.62c-.25-.55-.88-.83-1.46-.84-.6-.01-1.29,.19-1.29,.89,0,.61,.74,.76,1.55,1.02,1.02,.32,2.17,.7,2.17,2.03,0,1.21-1.11,1.85-2.52,1.83-1.24,0-2.22-.54-2.64-1.3l.79-.66Z"/>
      </g>
      <g>
        <path class="cls-2" d="M96.3,28.95c.16,0,.29,.06,.41,.19s.15,.27,.12,.43c-.35,2.58-1.24,4.88-2.68,6.9s-3.32,3.61-5.66,4.78c-2.34,1.16-4.98,1.74-7.91,1.74-3.28,0-6.19-.74-8.72-2.22-2.53-1.48-4.48-3.49-5.85-6.02s-2.05-5.33-2.05-8.38,.68-5.92,2.05-8.48,3.32-4.59,5.85-6.09c2.53-1.5,5.44-2.25,8.72-2.25,2.87,0,5.45,.57,7.76,1.72,2.31,1.15,4.19,2.71,5.64,4.68,1.45,1.97,2.36,4.2,2.75,6.69v.1c0,.13-.05,.25-.14,.36s-.22,.17-.38,.17h-7.17c-.1,0-.19-.03-.29-.09s-.16-.16-.19-.29c-.51-1.69-1.45-3.04-2.82-4.06-1.37-1.02-3.04-1.53-5.02-1.53-1.82,0-3.38,.4-4.71,1.19-1.32,.8-2.33,1.88-3.01,3.25s-1.03,2.88-1.03,4.54,.33,3.11,1,4.47c.67,1.36,1.66,2.45,2.96,3.27,1.31,.83,2.85,1.24,4.63,1.24,2.04,0,3.79-.53,5.25-1.6,1.46-1.07,2.44-2.51,2.91-4.32,.06-.25,.22-.38,.48-.38h7.07Z"/>
        <path class="cls-2" d="M103.57,41.35c-1.94-1.1-3.45-2.61-4.51-4.54-1.07-1.93-1.6-4.08-1.6-6.47s.52-4.54,1.58-6.45c1.05-1.91,2.55-3.42,4.49-4.54,1.94-1.11,4.2-1.67,6.78-1.67s4.84,.56,6.78,1.67c1.94,1.12,3.44,2.63,4.49,4.54,1.05,1.91,1.58,4.06,1.58,6.45s-.53,4.55-1.6,6.47c-1.07,1.93-2.57,3.44-4.51,4.54s-4.19,1.65-6.74,1.65-4.79-.55-6.74-1.65Zm10.65-7.07c1.02-1.03,1.53-2.33,1.53-3.89s-.5-2.91-1.51-3.97c-1-1.05-2.32-1.58-3.94-1.58s-2.94,.52-3.94,1.58-1.5,2.37-1.5,3.97,.51,2.86,1.53,3.89c1.02,1.04,2.32,1.55,3.92,1.55s2.9-.52,3.92-1.55Z"/>
        <path class="cls-2" d="M156.86,18.78c1.39,.7,2.51,1.82,3.37,3.34,.86,1.53,1.29,3.47,1.29,5.83v13.81c0,.13-.05,.25-.14,.36-.09,.11-.22,.17-.38,.17h-6.35c-.13,0-.25-.06-.36-.17-.11-.11-.17-.23-.17-.36v-12.52c0-1.53-.34-2.63-1.03-3.3-.69-.67-1.54-1-2.56-1-1.08,0-2.01,.38-2.77,1.15-.76,.76-1.15,1.93-1.15,3.49v12.18c0,.13-.05,.25-.14,.36-.09,.11-.22,.17-.38,.17h-6.35c-.13,0-.25-.06-.36-.17-.11-.11-.17-.23-.17-.36v-12.42c0-1.53-.34-2.63-1-3.3-.67-.67-1.51-1-2.53-1-1.18,0-2.13,.43-2.87,1.29-.73,.86-1.1,2.02-1.1,3.49v11.94c0,.13-.05,.25-.14,.36-.1,.11-.22,.17-.38,.17h-6.35c-.13,0-.25-.06-.36-.17-.11-.11-.17-.23-.17-.36V18.92c0-.16,.06-.29,.17-.38,.11-.09,.23-.14,.36-.14h6.07c.16,0,.29,.05,.38,.14s.14,.22,.14,.38v2.34h.19c.76-1.11,1.72-1.98,2.87-2.6,1.15-.62,2.4-.93,3.77-.93s2.7,.31,3.8,.93c1.1,.62,1.97,1.49,2.6,2.6h.19c.96-1.15,2.07-2.02,3.34-2.63,1.27-.61,2.68-.91,4.2-.91s3.08,.35,4.47,1.05Z"/>
      </g>
      <g>
        <path class="cls-2" d="M248.2,18.79l-7.91,24.42c-1.73,5.33-6.69,8.94-12.29,8.94h-2.73c-.43,0-.78-.35-.78-.78v-3.82c0-.4,.3-.73,.7-.77h.09c2.22-.23,4.09-1.77,4.74-3.9l.07-.23c.05-.17,.04-.35-.02-.51l-9.2-23.29c-.2-.51,.17-1.06,.72-1.06h6.21c.31,0,.6,.19,.72,.48l7.21,17.35,4.89-17.26c.09-.34,.4-.57,.75-.57h6.09c.53,0,.9,.52,.74,1.02Z"/>
        <path class="cls-2" d="M181.79,9.42c2.13,0,4.08,.5,5.84,1.5s3.17,2.38,4.2,4.15,1.55,3.75,1.55,5.94-.52,4.27-1.57,6.04-2.46,3.15-4.22,4.15c-1.77,1-3.7,1.5-5.79,1.5h-8.89v9.09c0,.13-.05,.25-.15,.37-.1,.12-.23,.17-.39,.17h-7.02c-.13,0-.25-.06-.37-.17-.12-.11-.17-.24-.17-.37V9.96c0-.16,.06-.3,.17-.39,.11-.1,.24-.15,.37-.15h16.45Zm-.74,15.62c1.15,0,2.11-.36,2.9-1.08,.78-.72,1.18-1.69,1.18-2.9,0-1.11-.4-2.02-1.2-2.72-.8-.7-1.76-1.06-2.87-1.06h-8.15v7.76h8.15Z"/>
        <path class="cls-2" d="M212.18,18.31c0-.16,.06-.29,.17-.39,.11-.1,.24-.15,.37-.15h6.48c.16,0,.3,.05,.39,.15,.1,.1,.15,.23,.15,.39v23.47c0,.13-.05,.25-.15,.37-.1,.12-.23,.17-.39,.17h-6.48c-.13,0-.25-.06-.37-.17-.12-.11-.17-.24-.17-.37v-2.46h-.2c-.78,1.11-1.83,2.02-3.14,2.7-1.31,.69-2.78,1.03-4.42,1.03-2.13,0-4.06-.54-5.79-1.62-1.74-1.08-3.09-2.6-4.08-4.57-.98-1.96-1.47-4.2-1.47-6.73s.47-4.73,1.42-6.73c.95-2,2.29-3.56,4.03-4.69s3.7-1.69,5.89-1.69c1.64,0,3.11,.34,4.42,1.03,1.31,.69,2.36,1.59,3.14,2.7h.2v-2.46Zm-1.6,15.89c1.06-1.13,1.6-2.51,1.6-4.15s-.54-3.06-1.62-4.17c-1.08-1.11-2.44-1.67-4.08-1.67s-3,.55-4.08,1.65c-1.08,1.1-1.62,2.5-1.62,4.2s.54,3.1,1.62,4.2c1.08,1.1,2.44,1.64,4.08,1.64s3.04-.56,4.1-1.69Z"/>
      </g>
    </g>
  </g>
</svg>